<svg width="40" height="40" viewBox="-0.5 0 25 25" fill="none" xmlns="http://www.w3.org/2000/svg">
<path d="M9.5293 12.78C11.1862 12.78 12.5293 11.4369 12.5293 9.78003C12.5293 8.12318 11.1862 6.78003 9.5293 6.78003C7.87244 6.78003 6.5293 8.12318 6.5293 9.78003C6.5293 11.4369 7.87244 12.78 9.5293 12.78Z" stroke="#000000" stroke-width="1.5" stroke-linecap="round" stroke-linejoin="round"/>
<path d="M16.2797 6.68998L20.4097 10.82C20.5838 10.9929 20.722 11.1985 20.8164 11.4251C20.9107 11.6516 20.9592 11.8946 20.9592 12.14C20.9592 12.3854 20.9107 12.6283 20.8164 12.8549C20.722 13.0814 20.5838 13.2871 20.4097 13.46L13.1697 20.7C12.9977 20.8738 12.7929 21.0119 12.5671 21.1061C12.3414 21.2002 12.0993 21.2487 11.8547 21.2487C11.6101 21.2487 11.3679 21.2002 11.1422 21.1061C10.9165 21.0119 10.7117 20.8738 10.5397 20.7L6.27967 16.4099C5.34541 15.4954 4.6249 14.3855 4.16968 13.1599C1.06968 4.69995 4.16968 1.38998 12.4197 4.24998C13.8732 4.76332 15.1924 5.59727 16.2797 6.68998V6.68998Z" stroke="#000000" stroke-width="1.5" stroke-linecap="round" stroke-linejoin="round"/>
</svg>